<svg version="1.0" xmlns="http://www.w3.org/2000/svg" viewBox="0 0 200 200"><g fill="#14598f"><path d="M3.4 3.4L0 6.8V136h14.9l4.1 13.2c5.6 17.9 6.7 20.7 7.4 18.7.4-.8 2.8-8.3 5.4-16.5l4.8-14.9 7.7-.3c4.2-.2 7.7.1 7.7.5-.1.4-4.5 12.5-9.8 26.8l-9.7 26-6.7.3c-7.8.3-7 1.2-12.3-13.4-2-5.4-5.9-15.7-8.5-22.9l-4.9-13-.1 25.8c0 26.8.2 28.6 4.4 31.9 2 1.6 8.6 1.8 96.2 1.8h94.1l2.7-2.6 2.6-2.7v-94.1c0-87.6-.2-94.2-1.8-96.2-.9-1.2-2.7-2.7-3.9-3.3C192.8.3 165.7 0 99.5 0H6.8L3.4 3.4zm54.2 69.7c4.3 2.6 6.4 7.5 6.4 14.5 0 12.2-7 19.4-18.8 19.4H39v5.3c0 5.8 1.2 7.7 4.7 7.7 1.4 0 2.3.6 2.3 1.5 0 1.2-1.8 1.5-10 1.5s-10-.3-10-1.5c0-.8.8-1.5 1.8-1.5 3.9 0 4.2-1.7 4.2-22.7V77l-2.5-1.2c-4.5-2.1-3.3-3.4 4.3-4.4 4.5-.6 5.2-.4 5.2 1.1 0 1.6.2 1.6 2.3.2 4.7-3.1 10.9-2.9 16.3.4zm32.2.5c2 2.3 2.2 3.5 2.2 14.5 0 12.8.8 15.9 4.1 15.9 4.1 0 1.1 2.5-3.3 2.8-3.8.2-4.9-.1-6.1-1.9l-1.6-2.1-3 2.1c-8.7 6.2-19.6 1.1-16.5-7.8 1.2-3.3 6-6.5 14.1-9.2l6.5-2.1-.6-4.6c-.8-5.8-2-7.2-6.5-7.2-3.5 0-3.8.3-4.7 3.7-.8 3.3-1.3 3.8-3.9 3.8-4 0-4.5-3.2-1.1-6.4 5.9-5.5 16.1-6.3 20.4-1.5zm36.4-.2c3.8 2.5 5.8 7.5 5.8 14.7 0 12-6.9 18.9-19 18.9h-6v4.6c0 5.8 1.4 8.4 4.5 8.4 1.6 0 2.5.6 2.5 1.5 0 1.2-1.8 1.5-10 1.5-7.8 0-10-.3-10-1.4 0-.7 1.4-1.6 3-2l3-.5V77l-2.5-1.2c-3.5-1.6-3.1-2.5 1.3-3.7 5.3-1.5 8.2-1.4 8.2.4 0 1.9 1.4 1.9 3 .1 2.3-2.9 11.3-2.4 16.2.8zm30-2.4c4.5 1.3 8.3 5.9 9.3 11.2l.7 3.8H141v2.7c.1 4.5 3.6 11 6.9 12.7 4.3 2.3 8.3 2 12.6-.9 2-1.5 4-2.4 4.3-2.1 1.1 1.2-3.2 5.9-7.1 7.7-5.5 2.5-9.3 2.4-14.7-.4-10.8-5.4-12-21.9-2.3-31 4.6-4.3 9.3-5.4 15.5-3.7zm36.6 2.6c.1 1.1-.3 2.8-1.1 3.8-1.2 1.7-1.8 1.7-5.1.6-3.4-1.1-4-1-6.2 1.1S178 82 178 91.4c0 5.6.4 10.6.8 11.3.4.6 2 1.3 3.6 1.5 1.6.1 3.1.9 3.4 1.5.3 1-2.2 1.3-10.3 1.3-8 0-10.6-.3-10.3-1.2.3-.7 1.5-1.5 2.9-1.8 2.4-.6 2.4-.7 2.7-13.8l.3-13.2-2.6-1.2c-3.5-1.6-3.1-2.5 1.3-3.7 6.7-1.9 8.2-1.5 8.2 2.1v3.2l3.3-3.1c4.8-4.6 10.8-5 11.5-.7zM66.9 114.5c3.2 3.2 3.2 8.7 0 12.1-3.5 3.7-9.9 3.4-13.3-.7-1.4-1.7-2.6-3.9-2.6-4.9 0-3.5 2.4-7.3 5.5-8.6 3.8-1.7 7.3-1 10.4 2.1zm43.1 23.3c6.6 4.1 10 11.2 10 20.8v7.4h-16.5c-16 0-16.5.1-16.5 2 0 3.4 2.8 7.9 6 9.5 3.7 1.9 12 1.9 16.7 0 1.9-.8 3.7-1.5 3.9-1.5.2 0 1.5 2.2 2.8 4.9l2.5 4.9-5.2 2.3c-4.2 1.9-7 2.3-14.7 2.3-8.3 0-10.1-.3-14.6-2.6-9.3-4.8-13.7-13-13.7-25.3 0-13.7 5.8-22.5 17.5-26.7 7.2-2.5 15.7-1.8 21.8 2zm-42.2 24.9l-.3 26.8-7.2.3-7.3.3V136h15l-.2 26.7zm66.5-20c.9 3.8 2.6 11.1 3.8 16.3l2.2 9.5 1.3-4c.7-2.2 2.7-9.5 4.5-16.3l3.2-12.2h7.2c7.1 0 7.3.1 7.8 2.7 1.3 5.6 7.5 28.5 8 28.9.2.2 2.1-6.8 4.3-15.6l3.8-16h7.3c5.2 0 7.3.4 7.3 1.2 0 .7-3.3 12.8-7.3 26.8l-7.3 25.5h-13.8l-5-16.8c-2.7-9.2-5.3-16.7-5.7-16.7-.4 0-1 1.2-1.4 2.7-.3 1.6-2.7 9.2-5.2 17.1l-4.6 14.3-6.6-.3-6.6-.3-4.1-14.5c-2.3-8-5.7-20-7.6-26.8l-3.5-12.2h16.4l1.6 6.7z"/><path d="M42 76.3c-2.4 1.2-2.5 1.5-2.5 12.6 0 10.7.1 11.4 2.4 13.2 4.7 3.8 13 1.4 15-4.2 2.5-7.3.5-17.3-4.1-20.3-3.5-2.3-7.9-2.8-10.8-1.3zM82 89.9c-7.9 2.4-11.8 7-9.3 11 1.6 2.5 7.5 2.6 10.6.1 2.3-1.8 2.7-2.9 2.7-7.1 0-2.7-.3-4.9-.7-4.8-.5 0-1.9.4-3.3.8zM109.8 76.6C107.1 78 107 78.3 107 87c0 9.4 1 13.5 3.8 15.6 3.9 3 11.8.7 14-4.1 1.6-3.5 1.5-11.8-.2-16-1.6-3.7-6.8-7.5-10.1-7.5-1.1.1-3.2.8-4.7 1.6zM146.3 74.2c-2.1 1-5.3 6.3-5.3 8.7 0 .7 3 1.1 8.5 1.1 9.2 0 9.4-.1 7.5-5.7-1-2.8-4.6-5.4-7.3-5.2-.7 0-2.2.5-3.4 1.1zM93.5 146.1c-3 .8-6.5 5.3-6.5 8.3 0 1.4 1.5 1.6 9.5 1.6 7.1 0 9.3-.3 9.1-1.3-.3-.6-.7-2.5-1.1-4-.4-2-1.6-3.3-4-4.3-1.9-.8-3.6-1.4-3.7-1.3-.2 0-1.7.5-3.3 1z"/></g></svg>
